<?xml version="1.0" encoding="UTF-8" standalone="no"?>
<!-- Created with Inkscape (http://www.inkscape.org/) -->

<svg
   xmlns:dc="http://purl.org/dc/elements/1.1/"
   xmlns:cc="http://creativecommons.org/ns#"
   xmlns:rdf="http://www.w3.org/1999/02/22-rdf-syntax-ns#"
   xmlns:svg="http://www.w3.org/2000/svg"
   xmlns="http://www.w3.org/2000/svg"
   xmlns:sodipodi="http://sodipodi.sourceforge.net/DTD/sodipodi-0.dtd"
   xmlns:inkscape="http://www.inkscape.org/namespaces/inkscape"
   width="96"
   height="96"
   viewBox="0 0 25.399999 25.400001"
   version="1.1"
   id="svg8185"
   inkscape:version="0.92.2 (5c3e80d, 2017-08-06)"
   sodipodi:docname="cobblestone-floor.svg">
  <defs
     id="defs8179" />
  <sodipodi:namedview
     id="base"
     pagecolor="#ffffff"
     bordercolor="#666666"
     borderopacity="1.0"
     inkscape:pageopacity="0.0"
     inkscape:pageshadow="2"
     inkscape:zoom="1.1148711"
     inkscape:cx="35.376134"
     inkscape:cy="17.759252"
     inkscape:document-units="mm"
     inkscape:current-layer="layer7"
     showgrid="false"
     inkscape:window-width="1600"
     inkscape:window-height="831"
     inkscape:window-x="0"
     inkscape:window-y="33"
     inkscape:window-maximized="1"
     units="px"
     showguides="false"
     inkscape:snap-global="true"
     inkscape:guide-bbox="true"
     inkscape:snap-grids="true"
     inkscape:snap-to-guides="true"
     inkscape:snap-nodes="false"
     inkscape:snap-others="false">
    <inkscape:grid
       type="xygrid"
       id="grid8749"
       empspacing="12" />
    <sodipodi:guide
       position="0,31.750001"
       orientation="1,0"
       id="guide8879"
       inkscape:locked="false" />
    <sodipodi:guide
       position="25.399999,28.575001"
       orientation="1,0"
       id="guide8881"
       inkscape:locked="false" />
    <sodipodi:guide
       position="31.749999,25.400001"
       orientation="0,1"
       id="guide8883"
       inkscape:locked="false" />
    <sodipodi:guide
       position="31.749999,0"
       orientation="0,1"
       id="guide8885"
       inkscape:locked="false" />
    <sodipodi:guide
       position="25.929166,15.081251"
       orientation="0,1"
       id="guide8887"
       inkscape:locked="false" />
    <sodipodi:guide
       position="22.489582,24.341668"
       orientation="1,0"
       id="guide8889"
       inkscape:locked="false" />
    <sodipodi:guide
       position="21.431249,25.135418"
       orientation="1,0"
       id="guide8891"
       inkscape:locked="false" />
    <sodipodi:guide
       position="13.229166,25.929168"
       orientation="1,0"
       id="guide8893"
       inkscape:locked="false" />
    <sodipodi:guide
       position="12.435416,25.929168"
       orientation="1,0"
       id="guide8895"
       inkscape:locked="false" />
    <sodipodi:guide
       position="5.8208331,25.664584"
       orientation="1,0"
       id="guide8897"
       inkscape:locked="false" />
    <sodipodi:guide
       position="5.2916665,25.929168"
       orientation="1,0"
       id="guide8899"
       inkscape:locked="false" />
    <sodipodi:guide
       position="0.52916665,16.139584"
       orientation="0,1"
       id="guide8901"
       inkscape:locked="false" />
    <sodipodi:guide
       position="-1.0583333,5.8208336"
       orientation="0,1"
       id="guide8905"
       inkscape:locked="false" />
    <sodipodi:guide
       position="-1.3229166,5.2916669"
       orientation="0,1"
       id="guide8907"
       inkscape:locked="false" />
  </sodipodi:namedview>
  <metadata
     id="metadata8182">
    <rdf:RDF>
      <cc:Work
         rdf:about="">
        <dc:format>image/svg+xml</dc:format>
        <dc:type
           rdf:resource="http://purl.org/dc/dcmitype/StillImage" />
        <dc:title></dc:title>
      </cc:Work>
    </rdf:RDF>
  </metadata>
  <g
     inkscape:groupmode="layer"
     id="layer7"
     inkscape:label="Layer 2"
     style="display:inline">
    <g
       inkscape:label="Layer 1"
       inkscape:groupmode="layer"
       id="layer1"
       transform="translate(0,-271.59998)"
       style="display:inline">
      <g
         inkscape:groupmode="layer"
         id="layer8"
         inkscape:label="Layer 3"
         style="display:inline"
         transform="translate(0,271.59998)" />
    </g>
    <g
       id="g9765">
      <rect
         y="0"
         x="0"
         height="25.4"
         width="25.4"
         id="rect8874"
         style="display:inline;opacity:1;fill:#292929;fill-opacity:1;stroke:none;stroke-width:0.14552084;stroke-miterlimit:4;stroke-dasharray:none;stroke-dashoffset:0;stroke-opacity:0.76029962" />
      <path
         inkscape:connector-curvature="0"
         id="path9011"
         d="m 6.4282655,3.8992799 c -0.21522,0.28238 -0.1475417,0.92574 -0.1854155,1.54472 C 6.0803353,6.47242 5.8806259,7.4982799 5.9503,8.5603698 5.9392616,9.7749499 5.931504,11.01077 6.0965746,12.16848 c 0.1524315,0.75874 -0.2273432,2.11564 0.779613,2.09365 1.6396407,0.0686 3.1474404,0.84869 4.7057174,1.1356 0.636804,0.0374 1.289836,-0.0375 1.609044,-0.33393 0.05162,-1.93725 -0.09239,-3.85969 -0.146281,-5.78922 V 6.5128398 C 12.803313,5.90761 12.868738,5.30411 12.825253,4.6423101 13.3235,3.6643101 12.138056,4.0413799 11.5119,3.97428 10.643812,3.8495999 9.6490974,3.50165 8.8792766,3.84317 8.2189732,3.92317 7.0517993,3.6068201 6.4282655,3.89927 v 1.01e-5 0"
         style="opacity:1;fill:#828282;fill-opacity:1;stroke:none;stroke-width:0.13229166;stroke-miterlimit:4;stroke-dasharray:none;stroke-dashoffset:0;stroke-opacity:1" />
      <path
         sodipodi:nodetypes="cccccccccc"
         inkscape:connector-curvature="0"
         id="path8991"
         d="m 0,19.57897 v 0 c 1.1584431,0 2.7676565,0.43643 4.1643093,0.49019 0.5532427,0.0213 1.6342871,0.23397 1.6596132,-0.0668 C 5.6892475,18.83332 5.4270243,17.60315 5.458234,16.37363 5.508231,15.0225 5.2373201,13.77788 5.3119593,12.41085 5.4173738,11.6021 4.9391321,11.20692 5.0194098,10.47286 5.0980019,9.5315899 3.4395833,10.05397 2.6458333,10.05397 1.2385236,10.14507 0.76079804,10.27305 0,10.31855 Z"
         style="opacity:1;fill:#828282;fill-opacity:1;stroke:none;stroke-width:0.13229166;stroke-miterlimit:4;stroke-dasharray:none;stroke-dashoffset:0;stroke-opacity:1" />
      <path
         inkscape:connector-curvature="0"
         id="path8989"
         d="m 14.484548,9.5564998 c 0.40855,-0.4952399 1.194539,-0.6396299 1.861717,-0.75424 1.043357,-0.17922 2.136618,-0.0382 3.181624,0.1328301 0.868996,0.1422199 1.996149,0.0886 2.523129,0.73552 0.606004,0.7439801 0.06063,4.1691201 0.32912,6.2355601 0.130619,1.00527 1.328321,2.20356 0.62168,2.98346 -0.534779,0.59021 -1.677614,-0.0114 -2.516282,0 -1.636281,0.0223 -3.691118,1.13384 -4.907206,0.13361 -0.671655,-0.55243 0.04957,-1.67702 -0.202759,-2.46976 -0.306406,-0.96261 -1.359939,-1.66516 -1.552565,-2.65207 -0.280972,-1.43955 -0.301865,-3.1771 0.661542,-4.3449102 v 0"
         style="opacity:1;fill:#828282;fill-opacity:1;stroke:none;stroke-width:0.13229166;stroke-miterlimit:4;stroke-dasharray:none;stroke-dashoffset:0;stroke-opacity:1" />
      <path
         sodipodi:nodetypes="cccccccc"
         inkscape:connector-curvature="0"
         id="path8985"
         d="m 25.399999,10.31855 c 0,0 -1.405897,0.092 -2.046548,0.16513 -0.566856,0.38963 -0.492483,2.68302 -0.326788,3.75662 0.214588,1.56749 0.609883,2.84862 0.580921,4.39933 0.112828,0.50547 -0.175416,0.55838 0.20169,0.83026 0.22235,0.13228 0.254107,0.11313 0.792662,0.13408 0.269277,0.0105 0.798064,-0.025 0.798064,-0.025 z"
         style="opacity:1;fill:#828282;fill-opacity:1;stroke:none;stroke-width:0.13229166;stroke-miterlimit:4;stroke-dasharray:none;stroke-dashoffset:0;stroke-opacity:1" />
      <path
         sodipodi:nodetypes="ccccccccccccc"
         inkscape:connector-curvature="0"
         id="path8977"
         d="m 15.875,25.3998 c -0.05439,-0.308681 -0.251894,-0.899236 -0.305387,-1.210655 -0.190368,-0.55287 -0.216595,-1.272968 -0.365117,-2.024718 -0.07442,-0.37669 -0.279175,-0.848895 -0.162418,-1.214685 0.103938,-0.325629 0.480733,-0.519649 0.772349,-0.697969 0.237938,-0.14549 0.579029,-0.09876 0.854323,-0.143443 0.696445,-0.11302 1.413874,0.0624 2.116667,0 0.62471,-0.0555 1.224921,-0.33369 1.852083,-0.3314 0.746101,0.003 1.705328,-0.14786 2.200382,0.41034 0.416578,0.46972 0.10163,1.59579 0.121579,1.87957 0.323872,0.95191 0.574739,0.543604 0.648708,1.508535 0.0242,0.338366 -1.606565,1.32202 -1.647752,1.824625 z"
         style="opacity:1;fill:#828282;fill-opacity:1;stroke:none;stroke-width:0.13229166;stroke-miterlimit:4;stroke-dasharray:none;stroke-dashoffset:0;stroke-opacity:1" />
      <path
         sodipodi:nodetypes="ccsccccccccccc"
         inkscape:connector-curvature="0"
         id="path8973"
         d="M 7.2822521,25.393987 C 7.1480491,24.236704 6.9947347,23.086442 6.7903232,21.94746 6.7635164,20.76373 6.3241911,19.66537 6.2783,18.50675 6.2644911,18.15812 6.303741,17.80832 6.3499999,17.4625 6.409623,17.01676 6.304249,16.46505 6.6145832,16.13958 6.8655223,15.87641 7.310689,15.90696 7.6729168,15.875 c 0.2896828,-0.0256 0.5803101,0.039 0.8703506,0.0601 v 2e-5 c 1.4551181,0.10593 2.8701586,0.42576 4.3641466,0.33397 0.877881,-0.10211 1.337898,0.1419 1.123536,0.97787 0.01286,1.24021 -0.09049,2.51301 0.292557,3.69843 0.04087,1.06453 0.430274,1.97957 0.365695,3.07299 0.08453,0.457955 0.08391,0.918065 0.06054,1.380498 z"
         style="opacity:1;fill:#828282;fill-opacity:1;stroke:none;stroke-width:0.13229166;stroke-miterlimit:4;stroke-dasharray:none;stroke-dashoffset:0;stroke-opacity:1" />
      <path
         sodipodi:nodetypes="cccccccccccc"
         inkscape:connector-curvature="0"
         id="path8969"
         d="M 6.7207338,25.399814 C 6.8722488,24.924789 6.4860743,24.004055 6.4852298,23.492977 6.4141061,22.513471 6.490527,21.601453 6.0892345,20.930449 5.5343795,20.600359 4.1548774,20.80654 3.175,20.6375 v 2e-5 C 2.4338446,20.50966 1.7132532,20.26982 0.96805624,20.16813 0.64772478,20.12443 0.28242352,20.07643 0,20.10833 v 0 1.9508 V 25.4 h 4.0119006 z"
         style="opacity:1;fill:#828282;fill-opacity:1;stroke:none;stroke-width:0.13229166;stroke-miterlimit:4;stroke-dasharray:none;stroke-dashoffset:0;stroke-opacity:1" />
      <path
         sodipodi:nodetypes="ccccscc"
         inkscape:connector-curvature="0"
         id="path9079"
         d="M 25.399999,25.4 25.4,20.10813 c 0,0 -1.531669,-0.30343 -1.880003,-0.0274 -0.265899,0.21065 0.368712,2.0807 0.435108,2.41037 0.0664,0.32966 0.419021,0.65636 0.499513,0.98366 0.08049,0.32729 -1.917892,1.52047 -1.965036,1.92524 z"
         style="fill:#828282;fill-opacity:1;stroke:none;stroke-width:0.13229167;stroke-linecap:butt;stroke-linejoin:miter;stroke-miterlimit:4;stroke-dasharray:none;stroke-opacity:1" />
      <path
         inkscape:connector-curvature="0"
         id="path9187"
         d="M 10.085938,4.2851562 C 9.677748,4.2312469 9.3452802,4.2451737 9.1054688,4.3515625 a 0.55647001,0.55647001 0 0 1 -0.1601563,0.044922 c -0.4563447,0.055289 -0.9147252,-0.019448 -1.3457031,-0.050781 -0.3454887,-0.025118 -0.5764391,0.00895 -0.75,0.044922 -0.014028,0.058494 -0.018343,0.052888 -0.025391,0.1835938 -0.012971,0.2405684 -0.00646,0.5609938 -0.027344,0.9023437 a 0.55647001,0.55647001 0 0 1 -0.00586,0.052734 C 6.626527,6.5702078 6.4422299,7.553489 6.5058594,8.5234375 a 0.55647001,0.55647001 0 0 1 0.00195,0.042969 c -0.011033,1.214054 -0.018171,2.4234305 0.1386719,3.5234375 l -0.00586,-0.03125 c 0.1063327,0.529279 0.039373,1.053038 0.078125,1.384765 0.019376,0.165864 0.064572,0.255021 0.068359,0.259766 0.00379,0.0047 -0.04949,0.0047 0.078125,0.002 a 0.55647001,0.55647001 0 0 1 0.035156,0 c 1.7853195,0.0747 3.3094077,0.861685 4.7421877,1.134766 0.467727,0.0208 0.807106,-0.08141 0.982422,-0.154297 0.02562,-1.781506 -0.08577,-3.570461 -0.136719,-5.3945311 a 0.55647001,0.55647001 0 0 1 0,-0.015625 V 6.5351562 C 12.269928,5.8559068 12.30769,5.2306951 12.271484,4.6796875 a 0.55647001,0.55647001 0 0 1 0.01172,-0.1582031 c -0.215525,0.00998 -0.474044,0.044013 -0.830078,0.00586 a 0.55647001,0.55647001 0 0 1 -0.02148,-0.00195 C 10.955269,4.4569744 10.494352,4.3390984 10.085943,4.28516 Z"
         style="display:inline;opacity:1;fill:#bebebe;fill-opacity:1;stroke:none;stroke-width:0.39687499;stroke-miterlimit:4;stroke-dasharray:none;stroke-dashoffset:0;stroke-opacity:1;paint-order:normal" />
      <path
         sodipodi:nodetypes="cccccccccccsccccc"
         inkscape:connector-curvature="0"
         id="path9195"
         d="M 4.171875,10.339844 C 3.7338173,10.351084 3.1385617,10.486328 2.6464844,10.486328 1.5016736,10.562078 0.60605428,10.790126 0,10.847917 V 19.05 c 1.1899051,0.07405 2.9974337,0.543165 4.1796875,0.588672 0.3210044,0.01236 0.723077,0.0712 1.0351563,0.08789 0.063512,0.0034 0.084915,-0.0033 0.1367187,-0.0039 -0.1389584,-1.053402 -0.3521831,-2.182723 -0.3222656,-3.361334 -5.9e-6,-0.0013 -5.9e-6,-0.0026 0,-0.0039 0.047508,-1.283873 -0.2249947,-2.532779 -0.1464844,-3.970709 2.224e-4,-0.01109 8.728e-4,-0.02216 0.00195,-0.0332 C 4.925514,12.04089 4.8603412,11.8351 4.765625,11.548828 4.6709088,11.262556 4.5406947,10.89306 4.5917969,10.425781 l -0.00195,0.01172 c 0.00948,-0.113536 0.037,-0.02823 0.00195,-0.04687 -0.035047,-0.01865 -0.2006268,-0.05641 -0.4199219,-0.05078 z"
         style="display:inline;opacity:1;fill:#bebebe;fill-opacity:1;stroke:none;stroke-width:0.39687499;stroke-miterlimit:4;stroke-dasharray:none;stroke-dashoffset:0;stroke-opacity:1;paint-order:normal" />
      <path
         inkscape:connector-curvature="0"
         id="path9197"
         d="m 17.900391,9.2988281 c -0.503681,-0.032253 -0.993765,-0.023271 -1.458985,0.056641 -0.662288,0.1137701 -1.305701,0.2946562 -1.523437,0.5585937 -0.786898,0.9538522 -0.81059,2.5197172 -0.544922,3.8808592 0.06423,0.32907 0.306817,0.686037 0.626953,1.097656 0.320136,0.411619 0.71248,0.869213 0.910156,1.490234 0.196323,0.616786 0.02397,1.165471 -0.03516,1.576172 -0.02956,0.205351 -0.03676,0.371806 -0.02148,0.46875 0.01527,0.09694 0.0244,0.114713 0.08203,0.16211 0.409288,0.336638 1.017894,0.3445 1.839844,0.197265 0.821949,-0.147235 1.760964,-0.446144 2.703125,-0.458984 0.557005,-0.0076 1.065466,0.156006 1.470703,0.222656 0.202618,0.03333 0.373463,0.04343 0.476562,0.0293 0.103099,-0.01413 0.125097,-0.02967 0.160157,-0.06836 0.07571,-0.08356 0.08209,-0.116581 0.07422,-0.242188 -0.0079,-0.125606 -0.06739,-0.328744 -0.169922,-0.564453 -0.205072,-0.471417 -0.576137,-1.03484 -0.666015,-1.726562 -0.1456,-1.120613 -0.0695,-2.503369 -0.04297,-3.699219 0.01326,-0.597925 0.01546,-1.146771 -0.01953,-1.564453 C 21.72673,10.297164 21.607494,10.015888 21.615235,10.025393 21.480468,9.8599514 21.21545,9.7406607 20.814453,9.6660156 20.413456,9.5913706 19.921526,9.5694501 19.4375,9.4902344 18.921526,9.4057878 18.404071,9.3310807 17.900391,9.2988281 Z"
         style="display:inline;opacity:1;fill:#bebebe;fill-opacity:1;stroke:none;stroke-width:0.39687499;stroke-miterlimit:4;stroke-dasharray:none;stroke-dashoffset:0;stroke-opacity:1;paint-order:normal" />
      <path
         sodipodi:nodetypes="ccccccccccccc"
         inkscape:connector-curvature="0"
         id="path9199"
         d="m 25.399999,10.583333 c -0.318874,0.02187 -1.33765,0.155456 -1.882421,0.211589 -0.03064,0.03619 -0.10889,0.141682 -0.164062,0.367187 -0.06189,0.252971 -0.100097,0.592514 -0.115235,0.957032 -0.03027,0.729035 0.02874,1.562464 0.107422,2.072265 6.86e-4,0.002 0.0014,0.0039 0.002,0.0059 0.20701,1.512133 0.589521,2.799664 0.574219,4.371093 0.06725,0.301262 0.01618,0.520096 0.0078,0.583985 -7.05e-4,-0.0022 0.01771,0.01509 0.05469,0.04492 0.08118,0.04841 0.08654,0.05238 0.146484,0.06055 0.06392,0.0087 0.208823,0.01279 0.482422,0.02344 0.136099,0.0053 0.609206,0.04222 0.786681,0.03329 z"
         style="display:inline;opacity:1;fill:#bebebe;fill-opacity:1;stroke:none;stroke-width:0.39687499;stroke-miterlimit:4;stroke-dasharray:none;stroke-dashoffset:0;stroke-opacity:1;paint-order:normal" />
      <path
         sodipodi:nodetypes="ccccccsccccccccccssccc"
         inkscape:connector-curvature="0"
         id="path9201"
         d="m 21.806641,20.09375 c -0.355724,-0.02921 -0.776071,0.0075 -1.171875,0.0059 -0.531687,-0.0019 -1.119703,0.265882 -1.820313,0.328125 -0.77496,0.06881 -1.485764,-0.100935 -2.095703,-0.002 -0.252763,0.04102 -0.491377,0.109901 -0.675781,0.222657 -0.287592,0.175858 -0.538604,0.368244 -0.59375,0.541015 -0.02843,0.08906 -0.01794,0.206028 0.03125,0.373047 0.04919,0.167019 0.135486,0.365992 0.18164,0.599609 0.150596,0.762249 0.304283,1.710412 0.47461,2.205079 0.0053,0.01658 0.0092,0.03356 0.01172,0.05078 0.03788,0.220509 0.216441,0.761849 0.255728,0.982038 h 5.027083 c 0.264583,-0.79375 0.529167,-1.058333 1.058333,-1.322917 0.294915,-0.119112 0.431225,-0.411684 0.626823,-0.506505 0.2577,-0.173709 0.02495,-0.613279 -0.09766,-0.816411 -0.144938,-0.235656 -0.189343,-0.06959 -0.36445,-0.584257 -0.0086,-0.02592 -0.01384,-0.05283 -0.01563,-0.08008 -0.01019,-0.144979 0.01287,-0.258796 0.0332,-0.41211 0.02033,-0.153314 0.04348,-0.328686 0.05469,-0.501953 0.02242,-0.346533 -0.03205,-0.666173 -0.128906,-0.77539 -0.169731,-0.191381 -0.435158,-0.277418 -0.791015,-0.306641 z"
         style="display:inline;opacity:1;fill:#bebebe;fill-opacity:1;stroke:none;stroke-width:0.39687499;stroke-miterlimit:4;stroke-dasharray:none;stroke-dashoffset:0;stroke-opacity:1;paint-order:normal" />
      <path
         sodipodi:nodetypes="cscssccccccccccccccccc"
         inkscape:connector-curvature="0"
         id="path9203"
         d="m 7.7148438,16.339844 c -0.2111434,0.01863 -0.4026002,0.01965 -0.5410157,0.04102 -0.1384155,0.02137 -0.1967873,0.055 -0.2207031,0.08008 -0.046072,0.04832 -0.083123,0.14211 -0.099609,0.333984 -0.016486,0.191874 -0.0031,0.447019 -0.041016,0.730469 -0.045462,0.33986 -0.080278,0.661988 -0.068359,0.96289 0.041675,1.052171 0.484391,2.156238 0.5136719,3.449219 L 7.25,21.865234 C 7.4323521,22.881302 7.5495287,24.37579 7.6729167,25.4 H 14.2875 c -1.05e-4,-0.280764 -0.0086,-1.035965 -0.05703,-1.298445 -0.0064,-0.03674 -0.0084,-0.07412 -0.0059,-0.111328 0.05718,-0.96807 -0.322356,-1.85965 -0.367187,-3.027343 l 0.02344,0.125 C 13.460227,19.786158 13.577011,18.461085 13.564453,17.25 c 5.3e-5,-0.04022 0.0053,-0.08027 0.01563,-0.119141 0.04228,-0.164879 0.03974,-0.272201 0.03125,-0.316406 -0.0085,-0.04421 -0.0056,-0.02984 -0.01758,-0.03906 -0.02395,-0.01845 -0.243338,-0.08804 -0.630859,-0.04297 -0.0084,8.98e-4 -0.01691,0.0016 -0.02539,0.002 -1.578222,0.09692 -3.0185881,-0.231449 -4.4277384,-0.334032 -0.3368474,-0.02451 -0.6014183,-0.07765 -0.7949218,-0.06055 z"
         style="display:inline;opacity:1;fill:#bebebe;fill-opacity:1;stroke:none;stroke-width:0.39687499;stroke-miterlimit:4;stroke-dasharray:none;stroke-dashoffset:0;stroke-opacity:1;paint-order:normal" />
      <path
         sodipodi:nodetypes="cccacsccc"
         inkscape:connector-curvature="0"
         id="path9205"
         d="M 0,20.6375 V 25.4 c 2.0875564,0.09402 4.2609846,0 6.35,0 C 6.5201718,24.885925 6.1667467,24.131012 6.078125,23.496094 5.9742125,22.751627 6.3031623,22.441004 5.7734375,21.261719 5.6088509,21.199 5.2568266,21.138482 4.7832031,21.128906 4.2572057,21.118271 3.655994,21.131744 3.1074219,21.037109 2.3261652,20.902331 1.6095498,20.665219 0.9140625,20.570312 0.7274754,20.544858 0,20.6375 0,20.6375 Z"
         style="display:inline;opacity:1;fill:#bebebe;fill-opacity:1;stroke:none;stroke-width:0.39687499;stroke-miterlimit:4;stroke-dasharray:none;stroke-dashoffset:0;stroke-opacity:1;paint-order:normal" />
      <path
         sodipodi:nodetypes="ccccccccccccccccc"
         inkscape:connector-curvature="0"
         id="path9213"
         d="m 23.974609,20.234375 c -0.147343,0.0079 -0.226173,0.0398 -0.25,0.04687 -0.0029,0.042 -0.0015,0.105373 0.0078,0.189453 0.02066,0.187201 0.07515,0.443336 0.140625,0.705078 0.06547,0.261743 0.140508,0.529475 0.205078,0.753907 0.06457,0.224431 0.115437,0.392448 0.138672,0.507812 0.01845,0.09162 0.101207,0.237669 0.207031,0.400391 0.105824,0.162721 0.234038,0.34058 0.291016,0.572265 0.04748,0.193069 -0.03301,0.289171 -0.0957,0.386719 -0.0627,0.09755 -0.144042,0.194397 -0.240235,0.298828 -0.192386,0.208863 -0.44483,0.442451 -0.699218,0.666016 C 23.457631,24.956855 23.01875,25.4 23.01875,25.4 H 25.4 l -10e-7,-5.027083 c 0,0 -0.537526,-0.08819 -0.835556,-0.117061 -0.205353,-0.0199 -0.419425,-0.03066 -0.589844,-0.02148 z"
         style="display:inline;fill:#bebebe;fill-opacity:1;stroke:none;stroke-width:0.39687499;stroke-linecap:butt;stroke-linejoin:miter;stroke-miterlimit:4;stroke-dasharray:none;stroke-opacity:1;paint-order:normal" />
      <path
         sodipodi:nodetypes="cccccacc"
         inkscape:connector-curvature="0"
         id="path9007-0-7"
         d="m 7.280776,-3.304e-4 c 0.07982,1.56053 0.477593,1.302673 0.462411,2.8685331 -0.05537,0.71393 0.878663,0.6361499 1.396907,0.3759499 0.788706,-0.2229599 1.729319,-0.0561 2.519493,-0.1055999 0.430748,-0.13129 1.434942,-0.045 2.103451,-0.0699 0.987357,0.29644 0.550243,-0.844494 0.709635,-1.317011 0.18844,-0.558635 0.281544,-1.147741 0.27559,-1.747081 z"
         style="display:inline;opacity:1;fill:#828282;fill-opacity:1;stroke:none;stroke-width:0.13229166;stroke-miterlimit:4;stroke-dasharray:none;stroke-dashoffset:0;stroke-opacity:1" />
      <path
         sodipodi:nodetypes="ccccccccacc"
         inkscape:connector-curvature="0"
         id="path9001-7-2"
         d="m 15.873524,0.0054826 c 0.01165,0.69122 -0.564095,1.70284 -0.529167,2.38145 -0.05726,0.9741801 -1.131676,1.5235149 -0.964462,2.465575 0.46553,0.43092 -0.340359,2.0464161 -0.09442,2.613456 0.07302,0.5779201 -0.08048,1.2387101 0.804524,1.00202 1.282947,-0.007 2.567294,-0.0254 3.827283,0.13361 1.007721,-0.0511 1.959682,0.1288601 2.901398,0.2003902 1.030491,0.31944 -0.04386,-1.5841001 0.182069,-2.0040301 -0.07944,-1.54539 -0.374118,-3.0698401 -0.328356,-4.6095801 0.0218,-0.733483 0.412939,-1.179031 0.28655,-2.182691 2.402686,4.77e-4 -5.742017,-1.92e-4 -6.085417,-2e-4 z"
         style="display:inline;opacity:1;fill:#828282;fill-opacity:1;stroke:none;stroke-width:0.13229166;stroke-miterlimit:4;stroke-dasharray:none;stroke-dashoffset:0;stroke-opacity:1" />
      <path
         sodipodi:nodetypes="ccccccccaccc"
         inkscape:connector-curvature="0"
         id="path8997-8-7"
         d="m 25.398523,9.2659038 c 0,0 -1.82007,0.39106 -2.423296,0.26052 -0.05829,-0.8691801 -0.09315,-1.74224 -0.07314,-2.6280801 h 6e-6 -1e-6 v 0 0 c -0.13482,-0.6109599 -0.238505,-1.3924499 -0.307245,-2.2416301 -0.06875,-0.84918 -0.264609,-1.8483149 -0.269264,-2.778962 -0.0031,-0.626428 0.162524,-1.872268 0.162524,-1.872268 l 2.910416,2e-4 z"
         style="display:inline;opacity:1;fill:#828282;fill-opacity:1;stroke:none;stroke-width:0.13229166;stroke-miterlimit:4;stroke-dasharray:none;stroke-dashoffset:0;stroke-opacity:1" />
      <path
         sodipodi:nodetypes="ccccccccc"
         inkscape:connector-curvature="0"
         id="path9071-4-2"
         d="m -0.001477,0.0056836 6.720734,-1.9e-4 c 0,0 -1.109024,3.48684 -1.077897,3.98296 0.04733,0.8127801 -0.111292,1.44038 -0.07314,2.2742199 -0.03926,0.9668002 0.08423,1.9957003 -0.07314,2.9173603 -0.810822,-0.039 -1.643674,-0.0949 -2.532575,-0.0668 l -2.963988,0.15287 v 0 z"
         style="display:inline;fill:#828282;fill-opacity:1;stroke:none;stroke-width:0.13229169;stroke-linecap:butt;stroke-linejoin:miter;stroke-miterlimit:4;stroke-dasharray:none;stroke-opacity:1" />
      <path
         inkscape:connector-curvature="0"
         id="path9073-9-2"
         d="M 25.398523,0.0056836 H 23.755828"
         style="display:inline;opacity:1;fill:#828282;fill-opacity:1;stroke:none;stroke-width:0.13229169;stroke-miterlimit:4;stroke-dasharray:none;stroke-dashoffset:0;stroke-opacity:1" />
      <path
         inkscape:connector-curvature="0"
         id="path9075-2-6"
         d="m 23.755828,0.0056836 h 1.642695"
         style="display:inline;opacity:1;fill:#828282;fill-opacity:1;stroke:none;stroke-width:0.13229169;stroke-miterlimit:4;stroke-dasharray:none;stroke-dashoffset:0;stroke-opacity:1" />
      <path
         sodipodi:nodetypes="cccccccccccsaaacc"
         inkscape:connector-curvature="0"
         id="path9189-8-1"
         d="m 7.67144,0.0056826 c 0.04236,0.421127 0.191891,1.106366 0.250521,1.357423 0.07761,0.332338 0.148394,0.70847 0.140625,1.5097649 2.4e-4,0.0072 2.4e-4,0.014319 0,0.021479 -0.0085,0.1094398 0.0093,0.1242909 0.0293,0.1445318 0.02003,0.020241 0.07678,0.05189 0.175781,0.06445 0.19801,0.025141 0.527027,-0.04532 0.728516,-0.146485 0.01816,-0.0089 0.03713,-0.016121 0.05664,-0.021479 0.893396,-0.2525551 1.858557,-0.0715 2.587891,-0.1171872 l -0.07422,0.013671 c 0.300614,-0.09163 0.662876,-0.09183 1.058593,-0.08984 0.508216,-0.021561 1.152031,0.1058003 1.497979,0.04755 0.139829,-0.02354 0.05512,-0.279679 0.05777,-0.421452 0.0047,-0.254122 -0.09721,-0.505553 -0.07529,-0.758772 0.01715,-0.198065 0.131144,-0.377852 0.160012,-0.57455 0.04988,-0.339465 0.04344,-0.746864 0.02047,-1.029103 z"
         style="display:inline;opacity:1;fill:#bebebe;fill-opacity:1;stroke:none;stroke-width:0.39687499;stroke-miterlimit:4;stroke-dasharray:none;stroke-dashoffset:0;stroke-opacity:1;paint-order:normal" />
      <path
         sodipodi:nodetypes="ccccccccccccccccaccc"
         inkscape:connector-curvature="0"
         id="path9191-9-0"
         d="m 16.402691,0.0056836 c 0.05155,0.752318 -0.646983,1.735977 -0.614966,2.358036 9e-4,0.01626 9e-4,0.03256 0,0.04883 -0.04926,0.83813 -1.154854,1.3349011 -0.972534,2.3556361 0.195877,0.3187578 0.249788,0.677024 0.236328,0.957031 -0.01685,0.3505038 -0.413449,1.4370389 -0.357679,1.5656261 0.01657,0.03797 0.02774,0.07807 0.0332,0.1191408 0.04106,0.32497 0.05077,0.5804432 0.06641,0.6542971 0.0177,7.673e-4 0.04418,0.011369 0.18164,-0.025389 0.03702,-0.0094 0.07509,-0.013999 0.113282,-0.013671 1.254383,-0.0068 2.529273,-0.020921 3.804687,0.1328118 1.057026,-0.0536 2.015007,0.1256901 2.910157,0.1972659 -0.0045,-0.06925 -5.82e-4,-0.06921 -0.02539,-0.1777349 -0.05072,-0.2218942 -0.13115,-0.4897833 -0.189452,-0.7460933 -0.04349,-0.1912009 -0.07627,-0.3834789 -0.03125,-0.6093752 v -0.0039 c -0.07731,-1.4979713 -0.401988,-3.0605173 -0.326178,-4.5937494 0.01938,-0.391964 0.203031,-0.865364 0.198828,-1.160418 -0.0029,-0.204069 0.0094,-0.835652 0,-1.058333 z"
         style="display:inline;opacity:1;fill:#bebebe;fill-opacity:1;stroke:none;stroke-width:0.39687499;stroke-miterlimit:4;stroke-dasharray:none;stroke-dashoffset:0;stroke-opacity:1;paint-order:normal" />
      <path
         sodipodi:nodetypes="cccccccccc"
         inkscape:connector-curvature="0"
         id="path9193-2-6"
         d="m 23.017274,0.0056836 c -0.280075,0.310526 -0.326093,1.235734 -0.330273,1.995765 -0.0049,0.8734089 0.12048,1.790826 0.18852,2.6311889 0.068,0.8400561 0.172174,1.6134191 0.302735,2.2050783 0.0046,0.02182 0.0066,0.04412 0.0059,0.06641 -0.01771,0.7839429 0.01732,1.5591761 0.06445,2.333985 0.264209,0.01198 0.683864,-0.0029 1.121093,-0.07031 0.40149,-0.06186 0.885555,-0.136727 1.028822,-0.166277 V 0.0056906 Z"
         style="display:inline;opacity:1;fill:#bebebe;fill-opacity:1;stroke:none;stroke-width:0.39687499;stroke-miterlimit:4;stroke-dasharray:none;stroke-dashoffset:0;stroke-opacity:1;paint-order:normal" />
      <path
         sodipodi:nodetypes="cccccccccc"
         inkscape:connector-curvature="0"
         id="path9207-4-1"
         d="m -0.001477,0.0056836 v 8.731251 l 2.94336,-0.02227 c 0.0033,-6.88e-4 0.0065,-0.0013 0.0098,-0.0019 0.768573,-0.024299 1.467398,0.02141 2.15625,0.05664 0.0767,-0.7731397 0.02438,-1.6309498 0.06055,-2.5214839 l 0.002,0.0332 C 5.129633,5.3885746 5.285994,4.7620146 5.242733,4.0134967 5.217553,3.6121036 5.755094,0.9274286 6.348592,0.0056836 Z"
         style="display:inline;fill:#bebebe;fill-opacity:1;stroke:none;stroke-width:0.39687499;stroke-linecap:butt;stroke-linejoin:miter;stroke-miterlimit:4;stroke-dasharray:none;stroke-opacity:1;paint-order:normal" />
      <path
         style="display:inline;opacity:1;fill:#bebebe;fill-opacity:1;stroke:none;stroke-width:0.39687499;stroke-miterlimit:4;stroke-dasharray:none;stroke-dashoffset:0;stroke-opacity:1;paint-order:normal"
         d="M 25.398523,0.0056836 H 23.755828"
         id="path9209-8-5"
         inkscape:connector-curvature="0" />
      <path
         style="display:inline;opacity:1;fill:#bebebe;fill-opacity:1;stroke:none;stroke-width:0.39687499;stroke-miterlimit:4;stroke-dasharray:none;stroke-dashoffset:0;stroke-opacity:1;paint-order:normal"
         d="m 23.755828,0.0056836 h 1.642695"
         id="path9211-7-9"
         inkscape:connector-curvature="0" />
    </g>
  </g>
</svg>
