<?xml version="1.0" encoding="UTF-8" standalone="no"?>
<!-- Created with Inkscape (http://www.inkscape.org/) -->

<svg
   xmlns:dc="http://purl.org/dc/elements/1.1/"
   xmlns:cc="http://creativecommons.org/ns#"
   xmlns:rdf="http://www.w3.org/1999/02/22-rdf-syntax-ns#"
   xmlns:svg="http://www.w3.org/2000/svg"
   xmlns="http://www.w3.org/2000/svg"
   xmlns:sodipodi="http://sodipodi.sourceforge.net/DTD/sodipodi-0.dtd"
   xmlns:inkscape="http://www.inkscape.org/namespaces/inkscape"
   width="10.58355mm"
   height="10.583384mm"
   viewBox="0 0 10.58355 10.583384"
   version="1.1"
   id="svg4337"
   inkscape:version="0.92.2 (5c3e80d, 2017-08-06)"
   sodipodi:docname="spikes2.svg">
  <defs
     id="defs4331" />
  <sodipodi:namedview
     id="base"
     pagecolor="#ffffff"
     bordercolor="#666666"
     borderopacity="1.0"
     inkscape:pageopacity="0.0"
     inkscape:pageshadow="2"
     inkscape:zoom="2.8"
     inkscape:cx="27.258002"
     inkscape:cy="-20.751745"
     inkscape:document-units="mm"
     inkscape:current-layer="layer1"
     showgrid="false"
     inkscape:window-width="1600"
     inkscape:window-height="831"
     inkscape:window-x="0"
     inkscape:window-y="33"
     inkscape:window-maximized="1"
     showguides="false"
     inkscape:guide-bbox="true"
     inkscape:snap-grids="true"
     fit-margin-top="0"
     fit-margin-left="0"
     fit-margin-right="0"
     fit-margin-bottom="0">
    <sodipodi:guide
       position="1.5876396,10.58338"
       orientation="0,1"
       id="guide4966"
       inkscape:locked="false" />
    <sodipodi:guide
       position="0.00013959191,4.9698452e-05"
       orientation="0,1"
       id="guide4968"
       inkscape:locked="false" />
    <sodipodi:guide
       position="0.00013959191,4.9698452e-05"
       orientation="1,0"
       id="guide4970"
       inkscape:locked="false" />
    <sodipodi:guide
       position="10.583469,4.9698452e-05"
       orientation="1,0"
       id="guide4972"
       inkscape:locked="false" />
    <sodipodi:guide
       position="1.1423496,2.0585597"
       orientation="1,0"
       id="guide5025"
       inkscape:locked="false" />
    <sodipodi:guide
       position="3.8590596,11.15361"
       orientation="1,0"
       id="guide5027"
       inkscape:locked="false" />
    <sodipodi:guide
       position="7.0245995,11.41348"
       orientation="1,0"
       id="guide5029"
       inkscape:locked="false" />
    <sodipodi:guide
       position="8.5601295,11.93319"
       orientation="1,0"
       id="guide5031"
       inkscape:locked="false" />
    <sodipodi:guide
       position="9.7897195,10.58338"
       orientation="1,0"
       id="guide5033"
       inkscape:locked="false" />
    <sodipodi:guide
       position="-1.1963804,3.5350297"
       orientation="0,1"
       id="guide5133"
       inkscape:locked="false" />
    <sodipodi:guide
       position="3.8590596,6.3484796"
       orientation="0,1"
       id="guide5167"
       inkscape:locked="false" />
  </sodipodi:namedview>
  <metadata
     id="metadata4334">
    <rdf:RDF>
      <cc:Work
         rdf:about="">
        <dc:format>image/svg+xml</dc:format>
        <dc:type
           rdf:resource="http://purl.org/dc/dcmitype/StillImage" />
        <dc:title></dc:title>
      </cc:Work>
    </rdf:RDF>
  </metadata>
  <g
     inkscape:label="Layer 1"
     inkscape:groupmode="layer"
     id="layer1"
     transform="translate(-155.52878,-171.49155)">
    <g
       id="g4991">
      <rect
         y="171.49155"
         x="155.52893"
         height="10.583334"
         width="10.583319"
         id="rect4974"
         style="opacity:1;fill:#b0b0b0;fill-opacity:1;stroke:none;stroke-width:0.14552084;stroke-miterlimit:4;stroke-dasharray:none;stroke-dashoffset:0;stroke-opacity:1" />
      <path
         sodipodi:nodetypes="cccacaccacaccccccccc"
         inkscape:connector-curvature="0"
         id="path4032"
         d="m 166.11225,175.72645 -0.79375,-4.2349 h -1.05833 c 0,0 0.0536,1.0641 0.0477,1.59645 -0.01,0.87015 -0.0882,1.73978 -0.13616,2.60707 -0.0639,0.12125 -0.74657,-1.92517 -1.00554,-2.92222 -0.10907,-0.41993 -0.22896,-1.2813 -0.22896,-1.2813 h -0.79375 c 0,0 -0.38506,1.04865 -0.52916,1.5875 -0.27876,1.0424 -0.35228,2.49438 -0.64586,3.17199 -0.0305,-0.23771 -0.17401,-0.85496 -0.27639,-1.27892 -0.28189,-1.16732 -0.92984,-3.48057 -0.92984,-3.48057 h -0.79375 c 0,0 -0.80838,2.42007 -1.11791,3.38207 -0.19512,-0.38331 -0.73417,-3.38207 -0.73417,-3.38207 h -0.79375 c 0,0 -0.61843,3.50705 -0.79371,4.2349 l -1.4e-4,6.34843 h 10.58333 z"
         style="opacity:1;fill:#3a3a3a;fill-opacity:1;stroke:none;stroke-width:0.14552084;stroke-miterlimit:4;stroke-dasharray:none;stroke-dashoffset:0;stroke-opacity:1" />
      <path
         sodipodi:nodetypes="cccaacacacccacacacacc"
         inkscape:connector-curvature="0"
         id="path4253"
         d="m 166.11225,182.07488 h -10.58333 v -4.23333 c 0,0 0.29593,-0.70258 0.46276,-1.0451 0.25017,-0.51361 0.5314,-1.01158 0.8061,-1.5125 0.30613,-0.55824 0.61668,-1.16146 0.93832,-1.66363 0.34395,0.87538 0.43501,1.83346 0.63046,2.75505 0.10482,0.49424 0.0764,1.13987 0.29073,1.48755 0.38978,-0.88116 0.3267,-1.8943 0.59629,-2.81468 0.0647,-0.22099 0.24409,-0.64627 0.24409,-0.64627 0,0 0.74503,1.81518 0.91778,2.6795 0.29635,0.49719 0.48042,1.48749 0.66972,1.81841 0.10577,-0.7587 0.35795,-1.58637 0.52917,-2.38125 0.27718,-1.28681 0.80637,-3.86576 0.80637,-3.86576 0,0 0.25307,2.24243 0.51654,3.3366 0.24451,1.01543 0.7261,1.90058 0.98267,2.97527 0.23487,-0.7591 0.6526,-1.44345 0.88731,-2.19785 0.19592,-0.62973 0.4309,-1.93101 0.4309,-1.93101 0,0 0.0908,1.32836 0.30144,1.95223 0.12784,0.37868 0.57268,1.05344 0.57268,1.05344 z"
         style="opacity:1;fill:#848484;fill-opacity:1;stroke:none;stroke-width:0.14552084;stroke-miterlimit:4;stroke-dasharray:none;stroke-dashoffset:0;stroke-opacity:1" />
      <path
         sodipodi:nodetypes="ccaaacaacaaacaaaaacaaacaaaacaaaacaaaaaacsccccc"
         inkscape:connector-curvature="0"
         id="path4088"
         d="m 155.52892,178.5399 0.7069,2.07493 c 0,0 0.32236,-1.26991 0.56589,-1.87597 0.0628,-0.15633 0.15266,-0.3004 0.22945,-0.45037 0.0642,-0.12532 0.12765,-0.25101 0.19329,-0.37557 0.0622,-0.11807 0.19009,-0.35238 0.19009,-0.35238 0,0 0.0826,0.20279 0.11785,0.3064 0.14239,0.41897 0.25386,0.84784 0.37712,1.27283 0.16834,0.58039 0.49498,1.74405 0.49498,1.74405 0,0 0.14848,-0.2316 0.21354,-0.35264 0.16475,-0.30652 0.29256,-0.63158 0.44642,-0.94371 0.29674,-0.60197 0.56812,-1.21935 0.91924,-1.79131 0.18864,-0.30728 0.32579,-0.5938 0.63467,-0.87592 0,0 0.0352,0.38128 0.0489,0.57223 0.0192,0.26878 0.0173,0.53916 0.0464,0.80705 0.0332,0.30562 0.11294,0.605 0.14592,0.91064 0.0255,0.23651 0.0152,0.47595 0.04,0.71253 0.0331,0.31461 0.082,0.62786 0.14486,0.9379 0.0226,0.11178 0.0835,0.3318 0.0835,0.3318 0,0 0.0919,-0.50614 0.15219,-0.75605 0.11619,-0.48191 0.28118,-0.95099 0.40317,-1.43147 0.0778,-0.3066 0.15229,-0.61445 0.20965,-0.92554 0.0403,-0.21854 0.0943,-0.65997 0.0943,-0.65997 0,0 0.20344,0.33836 0.28285,0.51852 0.15445,0.35038 0.22344,0.73402 0.37331,1.08638 0.11213,0.26362 0.27025,0.50552 0.39177,0.76495 0.13452,0.28717 0.24782,0.58382 0.37295,0.8752 0.12269,0.28569 0.37046,0.85604 0.37046,0.85604 0,0 -0.002,-0.26236 0,-0.39353 0.004,-0.34814 0.006,-0.69651 0.024,-1.04421 0.0252,-0.48806 0.0584,-0.97629 0.11743,-1.46143 0.0471,-0.38724 0.1438,-0.76747 0.18856,-1.15499 0.0263,-0.22797 0.0469,-0.68685 0.0469,-0.68685 0,0 0.14492,0.69292 0.2146,1.03994 0.0726,0.36139 0.13063,0.72578 0.21192,1.08531 0.0411,0.18182 0.0887,0.3622 0.13939,0.54159 0.0561,0.19866 0.11148,0.39796 0.18231,0.59187 0.0846,0.23157 0.19513,0.45284 0.2891,0.68076 0.0484,0.11735 0.0973,0.23455 0.14142,0.35357 0.0699,0.18851 0.19519,0.57067 0.19519,0.57067 0,0 0.0975,-0.58315 0.17001,-1.01984 0.0969,-0.58357 0.15466,-2.85257 0.15466,-2.85257 l 0.25817,0.76916 8e-5,3.53498 H 155.529 Z"
         style="opacity:1;fill:#b0b0b0;fill-opacity:1;stroke:none;stroke-width:0.14552084;stroke-miterlimit:4;stroke-dasharray:none;stroke-dashoffset:0;stroke-opacity:1" />
      <path
         sodipodi:nodetypes="ccccccc"
         inkscape:connector-curvature="0"
         id="path4251"
         d="m 156.32267,182.07493 0.14082,-0.94759 0.20764,-1.28168 0.25605,1.1564 0.18924,1.07287 h -0.39688 z"
         style="opacity:1;fill:#3a3a3a;fill-opacity:1;stroke:none;stroke-width:0.14552084;stroke-miterlimit:4;stroke-dasharray:none;stroke-dashoffset:0;stroke-opacity:1" />
      <path
         sodipodi:nodetypes="cscsccc"
         inkscape:connector-curvature="0"
         id="path4247"
         d="m 158.9685,182.07488 c 0,0 0.18653,-0.56031 0.25027,-0.82944 0.0637,-0.26914 0.16908,-0.55563 0.16908,-0.55563 0,0 0.0564,0.18608 0.13165,0.45198 0.0753,0.26591 0.24472,0.93096 0.24472,0.93096 l -0.39785,10e-4 z"
         style="opacity:1;fill:#3a3a3a;fill-opacity:1;stroke:none;stroke-width:0.14552084;stroke-miterlimit:4;stroke-dasharray:none;stroke-dashoffset:0;stroke-opacity:1" />
      <path
         sodipodi:nodetypes="cscscc"
         inkscape:connector-curvature="0"
         id="path4243"
         d="m 162.1435,182.07493 c 0,0 0.15731,-0.33837 0.23426,-0.64652 0.077,-0.30814 0.17562,-0.76144 0.17562,-0.76144 0,0 0.13566,0.25312 0.222,0.56749 0.0863,0.31437 0.16187,0.84047 0.16187,0.84047 z"
         style="opacity:1;fill:#3a3a3a;fill-opacity:1;stroke:none;stroke-width:0.14552084;stroke-miterlimit:4;stroke-dasharray:none;stroke-dashoffset:0;stroke-opacity:1" />
      <path
         sodipodi:nodetypes="cscsccc"
         inkscape:connector-curvature="0"
         id="path4032-6"
         d="m 164.26017,182.07493 c 0,0 -0.0443,-0.84107 -0.0874,-1.2598 -0.0637,-0.61926 -0.25281,-1.85039 -0.25281,-1.85039 0,0 0.74574,1.28184 1.01821,1.93304 0.16888,0.40362 0.38037,1.1771 0.38037,1.1771 -0.35278,2e-5 -0.70555,3e-5 -1.05833,5e-5 z"
         style="opacity:1;fill:#3a3a3a;fill-opacity:1;stroke:none;stroke-width:0.14552084;stroke-miterlimit:4;stroke-dasharray:none;stroke-dashoffset:0;stroke-opacity:1" />
    </g>
  </g>
</svg>
