<?xml version="1.0" encoding="UTF-8" standalone="no"?>
<!-- Created with Inkscape (http://www.inkscape.org/) -->

<svg
   xmlns:dc="http://purl.org/dc/elements/1.1/"
   xmlns:cc="http://creativecommons.org/ns#"
   xmlns:rdf="http://www.w3.org/1999/02/22-rdf-syntax-ns#"
   xmlns:svg="http://www.w3.org/2000/svg"
   xmlns="http://www.w3.org/2000/svg"
   xmlns:sodipodi="http://sodipodi.sourceforge.net/DTD/sodipodi-0.dtd"
   xmlns:inkscape="http://www.inkscape.org/namespaces/inkscape"
   width="40"
   height="40"
   viewBox="0 0 10.583333 10.583334"
   version="1.1"
   id="svg2453"
   sodipodi:docname="spikes.svg"
   inkscape:version="0.92.2 (5c3e80d, 2017-08-06)">
  <defs
     id="defs2447">
    <pattern
       patternUnits="userSpaceOnUse"
       width="39.999999"
       height="39.999987"
       patternTransform="matrix(0.26458333,0,0,0.26458333,0,286.41665)"
       id="pattern4003">
      <path
         d="M 39.999999,20.000013 20,39.999987 H 0 L 39.999999,0 Z M 0,0 H 20 L 0,20.000013 Z"
         style="fill:#000000;fill-opacity:1;stroke:none;stroke-width:0.99999994px;stroke-linecap:butt;stroke-linejoin:miter;stroke-opacity:1"
         id="path3006"
         inkscape:connector-curvature="0" />
    </pattern>
  </defs>
  <sodipodi:namedview
     id="base"
     pagecolor="#ffffff"
     bordercolor="#666666"
     borderopacity="1.0"
     inkscape:pageopacity="0.0"
     inkscape:pageshadow="2"
     inkscape:zoom="2.80633"
     inkscape:cx="30.764296"
     inkscape:cy="-43.908055"
     inkscape:document-units="mm"
     inkscape:current-layer="layer1"
     showgrid="true"
     units="px"
     inkscape:snap-grids="true"
     inkscape:snap-global="true"
     showguides="true"
     inkscape:guide-bbox="true"
     inkscape:window-width="1600"
     inkscape:window-height="831"
     inkscape:window-x="0"
     inkscape:window-y="33"
     inkscape:window-maximized="1">
    <inkscape:grid
       type="xygrid"
       id="grid2998" />
    <sodipodi:guide
       position="9.789583,9.2604172"
       orientation="1,0"
       id="guide4070"
       inkscape:locked="false" />
    <sodipodi:guide
       position="8.7312497,8.7312506"
       orientation="1,0"
       id="guide4072"
       inkscape:locked="false" />
    <sodipodi:guide
       position="4.2333332,8.9958339"
       orientation="1,0"
       id="guide4074"
       inkscape:locked="false" />
    <sodipodi:guide
       position="3.4395832,8.4666672"
       orientation="1,0"
       id="guide4076"
       inkscape:locked="false" />
    <sodipodi:guide
       position="0.79374997,8.7312506"
       orientation="1,0"
       id="guide4078"
       inkscape:locked="false" />
    <sodipodi:guide
       position="1.5874999,8.4666672"
       orientation="1,0"
       id="guide4080"
       inkscape:locked="false" />
    <sodipodi:guide
       position="0.52916665,8.2020839"
       orientation="0,1"
       id="guide4082"
       inkscape:locked="false" />
    <sodipodi:guide
       position="2.3812499,4.2333336"
       orientation="0,1"
       id="guide4084"
       inkscape:locked="false" />
    <sodipodi:guide
       position="3.7041667,1.8520834"
       orientation="0,1"
       id="guide4091"
       inkscape:locked="false" />
    <sodipodi:guide
       position="6.6145831,9.2604172"
       orientation="1,0"
       id="guide4093"
       inkscape:locked="false" />
    <sodipodi:guide
       position="7.4083331,8.7312506"
       orientation="1,0"
       id="guide4095"
       inkscape:locked="false" />
  </sodipodi:namedview>
  <metadata
     id="metadata2450">
    <rdf:RDF>
      <cc:Work
         rdf:about="">
        <dc:format>image/svg+xml</dc:format>
        <dc:type
           rdf:resource="http://purl.org/dc/dcmitype/StillImage" />
        <dc:title></dc:title>
      </cc:Work>
    </rdf:RDF>
  </metadata>
  <g
     inkscape:label="Layer 1"
     inkscape:groupmode="layer"
     id="layer1"
     transform="translate(0,-286.41665)">
    <g
       id="g4273">
      <path
         sodipodi:nodetypes="cccccccccccccccccccc"
         inkscape:connector-curvature="0"
         id="path4032"
         d="m 10.583333,288.7979 c -0.37234,-0.71368 -0.79375,-2.38125 -0.79375,-2.38125 H 8.7312497 c 0,0 0.109286,1.23117 0.04774,1.59645 0.045742,0.87306 -0.088158,1.73978 -0.1361599,2.60707 -0.063923,0.12125 -0.8184502,-2.58955 -1.0055393,-2.92222 -0.076177,-0.30914 -0.2289572,-1.2813 -0.2289572,-1.2813 h -0.79375 c 0,0 -0.3540278,1.29427 -0.5291666,1.5875 -0.3154288,0.66842 -0.3522741,2.49438 -0.6458522,3.17199 -0.03054,-0.23771 -0.086623,-0.90673 -0.27639,-1.27892 -0.1103345,-0.83946 -0.9298412,-3.48057 -0.9298412,-3.48057 h -0.79375 c 0,0 -0.8083863,2.42007 -1.1179162,3.38207 C 2.1265496,289.41541 1.5875,286.41665 1.5875,286.41665 H 0.79375 c 0,0 -0.61057045,1.65755 -0.78584634,2.3854 L 0,296.99998 h 10.583333 z"
         style="opacity:1;fill:#050505;fill-opacity:1;stroke:none;stroke-width:0.14552084;stroke-miterlimit:4;stroke-dasharray:none;stroke-dashoffset:0;stroke-opacity:1" />
      <path
         sodipodi:nodetypes="ccccccccacccccccccccc"
         inkscape:connector-curvature="0"
         id="path4253"
         d="M 10.583333,296.99998 H 0 c 0,0 -0.18567144,-3.9033 0,-4.23333 0.18567144,-0.33002 0.24911407,-0.74294 0.46275746,-1.0451 0.24134494,-0.52712 0.51134429,-1.01253 0.80609814,-1.5125 0.3481012,-0.52972 0.6166798,-1.16146 0.9383276,-1.66363 0.3439466,0.87538 0.3543767,1.86091 0.6304553,2.75505 0.1333445,0.46984 0.076406,1.13987 0.2907346,1.48755 0.3897807,-0.88116 0.326701,-1.8943 0.5962919,-2.81468 0.064731,-0.22099 0.244085,-0.64627 0.244085,-0.64627 0,0 0.745034,1.81518 0.9177829,2.6795 0.2963504,0.49719 0.4804153,1.48749 0.6697171,1.81841 0.1057651,-0.7587 0.5005897,-1.60619 0.5291667,-2.38125 0.2223747,-1.35736 0.8063712,-3.86576 0.8063712,-3.86576 0,0 0.4217138,2.44259 0.5165454,3.3366 0.3711658,1.04407 0.7260966,1.90058 0.982666,2.97527 0.2348665,-0.7591 0.6326994,-1.45955 0.8873062,-2.19785 0.1846051,-0.62721 0.4309047,-1.93101 0.4309047,-1.93101 0,0 0.1184304,1.31162 0.3014438,1.95223 0.08721,0.42703 0.349734,0.78611 0.572679,1.05344 0.222945,0.26733 0,4.23333 0,4.23333 z"
         style="opacity:1;fill:#848484;fill-opacity:1;stroke:none;stroke-width:0.14552084;stroke-miterlimit:4;stroke-dasharray:none;stroke-dashoffset:0;stroke-opacity:1" />
      <path
         sodipodi:nodetypes="caacccccccccccccccccccccccccccccccccccccccccccccc"
         inkscape:connector-curvature="0"
         id="path4088"
         d="m 0,295.67707 c -0.01704358,-0.1719 0.31022577,-0.47407 0.47161388,-0.70683 0.1071804,-0.15458 0.22895583,-0.29912 0.32977355,-0.45793 0.17338957,-0.27312 0.34112967,-0.54871 0.47140477,-0.84835 0.063807,-0.19687 0.22321,-0.29517 0.229452,-0.45037 0.1115321,-0.0915 0.085316,-0.24428 0.1932826,-0.37557 0.080467,-0.0763 0.1900924,-0.35238 0.1900924,-0.35238 0,0 0.046679,0.21156 0.1178528,0.3064 0.1779823,0.37842 0.1563295,0.8969 0.3771218,1.27283 0.1982355,0.25045 0.095576,0.67903 0.3143185,0.89383 0.072425,0.24751 0.071798,0.71713 0.1806559,0.85022 0.085163,-0.1045 0.093918,-0.20884 0.2135465,-0.35264 0.1742955,-0.30696 0.2433972,-0.6833 0.4464189,-0.94371 0.1167579,-0.26564 0.3124516,-0.55483 0.366289,-0.88266 0.1880099,-0.29994 0.3538122,-0.57676 0.5529503,-0.90865 0.1805174,-0.24646 0.222901,-0.56864 0.4771107,-0.65505 -0.087563,-0.0568 0.15756,-0.22087 0.15756,-0.22087 0,0 0.00517,0.41163 0.048867,0.57223 -0.031749,0.27964 0.074603,0.52974 0.046367,0.80705 0.1150586,0.29629 0.04656,0.7533 0.1459211,0.91064 -0.029264,0.25192 0.028537,0.47686 0.039967,0.71253 0.067769,0.32551 0.043227,0.6497 0.1448683,0.9379 -4.466e-4,0.18807 0,0.56566 0,0.56566 0,0 0.2025281,-0.62442 0.235702,-0.98991 0.1310848,-0.48371 0.2011939,-0.9791 0.4031731,-1.43147 0.1123766,-0.33231 0.2007691,-0.60802 0.2096533,-0.92554 0.088563,-0.11637 0.094281,-0.65997 0.094281,-0.65997 0,0 0.1772308,0.37847 0.282843,0.51852 0.1132464,0.36741 0.2505339,0.72594 0.3733141,1.08638 0.2383378,0.24764 0.1887015,0.54686 0.3917706,0.76495 0.139954,0.34286 0.1506319,0.58077 0.3729504,0.8752 0.032075,0.30007 0.3704623,0.85604 0.3704623,0.85604 0,0 -7.028e-4,-0.29007 0,-0.39353 0.011664,-0.34754 -0.025588,-0.70309 0.023999,-1.04421 0.064362,-0.48287 0.061405,-0.97776 0.1174225,-1.46143 0.021081,-0.40037 0.1253841,-0.77078 0.1885619,-1.15499 -0.034022,-0.20029 0.046911,-0.68685 0.046911,-0.68685 0,0 0.1106184,0.67305 0.2145991,1.03994 0.046983,0.37358 0.052702,0.7676 0.2119224,1.08531 -0.019175,0.23607 0.1245475,0.30216 0.1393923,0.54159 0.10802,0.14143 0.1267976,0.41002 0.182312,0.59187 0.1212861,0.1452 0.081791,0.5499 0.289094,0.68076 0.029446,0.13417 0.08592,0.24064 0.1414202,0.35357 0.1544142,0.1178 0.093551,0.42276 0.1951908,0.57067 -0.01432,0.2829 0.145238,-0.30466 0.229071,-0.40563 0.172596,-0.32226 0.166227,-0.15849 0.353853,-0.48555 v 1.32291 H 0 Z"
         style="opacity:1;fill:#fafafa;fill-opacity:1;stroke:none;stroke-width:0.14552084;stroke-miterlimit:4;stroke-dasharray:none;stroke-dashoffset:0;stroke-opacity:1" />
      <path
         sodipodi:nodetypes="cccc"
         inkscape:connector-curvature="0"
         id="path4251"
         d="m 0.80045138,297.0083 c 0.1578571,-0.369 0.60990102,-0.9599 0.60990102,-0.9599 0,0 0.050665,0.59979 0.1771475,0.95158 z"
         style="opacity:1;fill:#020202;fill-opacity:1;stroke:none;stroke-width:0.14552084;stroke-miterlimit:4;stroke-dasharray:none;stroke-dashoffset:0;stroke-opacity:1" />
      <path
         sodipodi:nodetypes="cccc"
         inkscape:connector-curvature="0"
         id="path4247"
         d="m 3.4395831,296.99998 c 0.3287461,-0.61706 0.6413563,-1.12522 0.6413563,-1.12522 0,0 0.1571542,0.46084 0.1661585,1.09947 z"
         style="opacity:1;fill:#020202;fill-opacity:1;stroke:none;stroke-width:0.14552084;stroke-miterlimit:4;stroke-dasharray:none;stroke-dashoffset:0;stroke-opacity:1" />
      <path
         sodipodi:nodetypes="cccc"
         inkscape:connector-curvature="0"
         id="path4243"
         d="m 6.6145828,297.00003 c 0.204187,-0.35074 0.529167,-0.79375 0.529167,-0.79375 0,0 0.1872701,0.49276 0.264583,0.79375 z"
         style="opacity:1;fill:#020202;fill-opacity:1;stroke:none;stroke-width:0.14552084;stroke-miterlimit:4;stroke-dasharray:none;stroke-dashoffset:0;stroke-opacity:1" />
      <path
         sodipodi:nodetypes="cccc"
         inkscape:connector-curvature="0"
         id="path4032-6"
         d="m 8.7312498,297.00003 c -0.00767,-0.37255 0.2863997,-1.06039 0.2863997,-1.06039 0,0 0.4144321,0.79788 0.7837187,1.10106 z"
         style="opacity:1;fill:#020202;fill-opacity:1;stroke:none;stroke-width:0.14552084;stroke-miterlimit:4;stroke-dasharray:none;stroke-dashoffset:0;stroke-opacity:1" />
    </g>
  </g>
</svg>
